<?xml version="1.0" encoding="UTF-8" standalone="no"?>
<svg
   xmlns:dc="http://purl.org/dc/elements/1.1/"
   xmlns:cc="http://creativecommons.org/ns#"
   xmlns:rdf="http://www.w3.org/1999/02/22-rdf-syntax-ns#"
   xmlns:svg="http://www.w3.org/2000/svg"
   xmlns="http://www.w3.org/2000/svg"
   xmlns:sodipodi="http://sodipodi.sourceforge.net/DTD/sodipodi-0.dtd"
   xmlns:inkscape="http://www.inkscape.org/namespaces/inkscape"
   id="svg8"
   version="1.1"
   viewBox="0 0 63.404331 50.800289"
   height="50.800289mm"
   width="63.404331mm"
   sodipodi:docname="albums.svg"
   inkscape:version="0.92.5 (2060ec1f9f, 2020-04-08)">
  <sodipodi:namedview
     pagecolor="#ffffff"
     bordercolor="#666666"
     borderopacity="1"
     objecttolerance="10"
     gridtolerance="10"
     guidetolerance="10"
     inkscape:pageopacity="0"
     inkscape:pageshadow="2"
     inkscape:window-width="1366"
     inkscape:window-height="714"
     id="namedview7"
     showgrid="false"
     fit-margin-top="0"
     fit-margin-left="0"
     fit-margin-right="0"
     fit-margin-bottom="0"
     inkscape:zoom="0.22420264"
     inkscape:cx="336.12161"
     inkscape:cy="339.8067"
     inkscape:window-x="0"
     inkscape:window-y="0"
     inkscape:window-maximized="1"
     inkscape:current-layer="svg8" />
  <defs
     id="defs2" />
  <metadata
     id="metadata5">
    <rdf:RDF>
      <cc:Work
         rdf:about="">
        <dc:format>image/svg+xml</dc:format>
        <dc:type
           rdf:resource="http://purl.org/dc/dcmitype/StillImage" />
        <dc:title></dc:title>
      </cc:Work>
    </rdf:RDF>
  </metadata>
  <path
     inkscape:connector-curvature="0"
     style="fill:#ffffff;fill-opacity:1;stroke-width:0.26458335"
     d="M 3.903715,49.67552 C 3.817725,49.05706 2.975403,41.58589 2.031888,33.07292 1.088374,24.55995 0.245218,17.20784 0.158204,16.7349 L 0,15.875 h 25.392754 25.392759 l -0.0838,0.59531 c -0.0461,0.32743 -0.15094,1.02542 -0.23305,1.5511 l -0.1493,0.95578 -2.30994,0.13562 c -1.48268,0.087 -3.0463,0.38435 -4.36604,0.83015 l -2.05609,0.69454 H 23.468945 c -9.965113,0 -18.1192,0.0893 -18.120192,0.19844 -0.0042,0.45875 2.675175,24.06271 2.793121,24.60625 l 0.12918,0.59531 13.15798,0.002 13.157979,0.002 0.63519,0.93264 c 0.34935,0.51296 1.3384,1.58371 2.19789,2.37945 l 1.56271,1.4467 H 21.521432 4.060065 Z m 42.270168,0.74271 c -6.54273,-1.49043 -11.18999,-7.26556 -11.18999,-13.90573 0,-9.73014 9.82551,-16.69021 18.90766,-13.39357 2.36452,0.85827 3.78506,1.75705 5.48434,3.46994 4.35674,4.39161 5.27837,11.19942 2.28105,16.8493 -0.92829,1.74981 -3.26198,4.1992 -4.935,5.17965 -3.12614,1.83204 -7.2896,2.54269 -10.54806,1.80041 z m 7.93917,-3.93181 c 1.0538,-0.52082 2.19893,-1.2481 2.54472,-1.61618 l 0.62871,-0.66923 -1.24988,-1.463 -1.24988,-1.46301 h -5.61205 -5.61206 l -0.91729,1.12448 c -0.50452,0.61846 -1.062,1.31105 -1.23887,1.53907 -0.27133,0.34984 -0.10971,0.57616 1.03473,1.44892 2.1425,1.63389 4.3352,2.28022 7.30085,2.15202 2.16615,-0.0936 2.68046,-0.21755 4.37102,-1.05307 z m -2.06061,-9.29676 c 1.75674,-1.33993 2.40306,-3.65385 1.57448,-5.63691 -0.52514,-1.25685 -1.08196,-1.85789 -2.29447,-2.47674 -1.75488,-0.89565 -3.89,-0.58592 -5.32583,0.7726 -1.09815,1.03901 -1.49773,1.96982 -1.49773,3.48889 0,1.51857 0.39907,2.44863 1.49773,3.49056 1.06845,1.01327 1.86382,1.27805 3.56963,1.1883 1.15743,-0.0609 1.71717,-0.24776 2.47619,-0.8267 z m -29.628118,6.17202 c -2.321877,-0.33821 -4.667869,-1.1922 -6.408531,-2.33284 -1.968507,-1.28995 -3.035051,-2.43404 -3.963537,-4.25175 -0.620649,-1.21506 -0.74282,-1.78269 -0.740296,-3.43959 0.0039,-2.53287 0.914535,-4.48741 2.963211,-6.35978 2.824737,-2.58165 6.403022,-3.79349 11.183718,-3.78753 3.331853,0.004 5.491762,0.44777 7.786313,1.59921 2.07427,1.04091 2.06484,1.02202 1.1716,2.34555 -0.4357,0.64557 -1.15861,2.15642 -1.60647,3.35743 -1.043851,2.79924 -1.325651,7.25531 -0.630431,9.96901 0.23761,0.92746 0.400161,1.71499 0.361231,1.75007 -0.256241,0.2309 -2.83,0.94397 -4.223188,1.17005 -1.923306,0.3121 -3.654768,0.30628 -5.89362,-0.0198 z m 5.077984,-7.37113 c 1.491676,-0.90951 1.491676,-2.80909 0,-3.7186 -1.194157,-0.72811 -3.036956,-0.69118 -4.187105,0.0839 -0.795346,0.53599 -0.899023,0.74073 -0.899023,1.7754 0,1.03467 0.103677,1.23942 0.899023,1.7754 1.150149,0.77508 2.992948,0.81201 4.187105,0.0839 z M 1.64639,10.31875 V 7.9375 h 23.8125 23.812503 V 10.31875 12.7 H 25.45889 1.64639 Z m 1.5875,-7.9375 V 0 h 22.225 22.225003 V 2.38125 4.7625 H 25.45889 3.23389 Z"
     id="path992" />
</svg>
