<?xml version="1.0" encoding="UTF-8" standalone="no"?>
<svg
   xmlns:dc="http://purl.org/dc/elements/1.1/"
   xmlns:cc="http://creativecommons.org/ns#"
   xmlns:rdf="http://www.w3.org/1999/02/22-rdf-syntax-ns#"
   xmlns:svg="http://www.w3.org/2000/svg"
   xmlns="http://www.w3.org/2000/svg"
   xmlns:sodipodi="http://sodipodi.sourceforge.net/DTD/sodipodi-0.dtd"
   xmlns:inkscape="http://www.inkscape.org/namespaces/inkscape"
   viewBox="0 0 157.5 180"
   version="1.1"
   id="svg4"
   sodipodi:docname="calendar.svg"
   inkscape:version="0.92.5 (2060ec1f9f, 2020-04-08)"
   width="157.5"
   height="180">
  <metadata
     id="metadata10">
    <rdf:RDF>
      <cc:Work
         rdf:about="">
        <dc:format>image/svg+xml</dc:format>
        <dc:type
           rdf:resource="http://purl.org/dc/dcmitype/StillImage" />
        <dc:title></dc:title>
      </cc:Work>
    </rdf:RDF>
  </metadata>
  <defs
     id="defs8" />
  <sodipodi:namedview
     pagecolor="#ffffff"
     bordercolor="#666666"
     borderopacity="1"
     objecttolerance="10"
     gridtolerance="10"
     guidetolerance="10"
     inkscape:pageopacity="0"
     inkscape:pageshadow="2"
     inkscape:window-width="1366"
     inkscape:window-height="714"
     id="namedview6"
     showgrid="false"
     inkscape:zoom="0.69515191"
     inkscape:cx="58.340474"
     inkscape:cy="87.259797"
     inkscape:window-x="0"
     inkscape:window-y="0"
     inkscape:window-maximized="1"
     inkscape:current-layer="svg4"
     fit-margin-top="0"
     fit-margin-left="0"
     fit-margin-right="0"
     fit-margin-bottom="0" />
  <!--! Font Awesome Pro 6.3.0 by @fontawesome - https://fontawesome.com License - https://fontawesome.com/license (Commercial License) Copyright 2023 Fonticons, Inc. -->
  <path
     d="m 45,0 c 6.22265,0 11.25,5.02734 11.25,11.25 V 22.5 h 45 V 11.25 C 101.25,5.02734 106.27734,0 112.5,0 c 6.22266,0 11.25,5.02734 11.25,11.25 V 22.5 h 16.875 c 9.31641,0 16.875,7.55859 16.875,16.875 V 56.25 H 0 V 39.375 C 0,30.05859 7.55859,22.5 16.875,22.5 H 33.75 V 11.25 C 33.75,5.02734 38.77734,0 45,0 Z M 0,67.5 h 157.5 v 95.625 c 0,9.31641 -7.55859,16.875 -16.875,16.875 H 16.875 C 7.55859,180 0,172.44141 0,163.125 Z m 22.5,28.125 v 11.25 c 0,3.09375 2.53125,5.625 5.625,5.625 h 11.25 c 3.09375,0 5.625,-2.53125 5.625,-5.625 V 95.625 C 45,92.53125 42.46875,90 39.375,90 H 28.125 C 25.03125,90 22.5,92.53125 22.5,95.625 Z m 45,0 v 11.25 c 0,3.09375 2.53125,5.625 5.625,5.625 h 11.25 c 3.09375,0 5.625,-2.53125 5.625,-5.625 V 95.625 C 90,92.53125 87.46875,90 84.375,90 H 73.125 C 70.03125,90 67.5,92.53125 67.5,95.625 Z M 118.125,90 c -3.09375,0 -5.625,2.53125 -5.625,5.625 v 11.25 c 0,3.09375 2.53125,5.625 5.625,5.625 h 11.25 c 3.09375,0 5.625,-2.53125 5.625,-5.625 V 95.625 C 135,92.53125 132.46875,90 129.375,90 Z M 22.5,140.625 v 11.25 c 0,3.09375 2.53125,5.625 5.625,5.625 h 11.25 c 3.09375,0 5.625,-2.53125 5.625,-5.625 v -11.25 C 45,137.53125 42.46875,135 39.375,135 h -11.25 c -3.09375,0 -5.625,2.53125 -5.625,5.625 z M 73.125,135 c -3.09375,0 -5.625,2.53125 -5.625,5.625 v 11.25 c 0,3.09375 2.53125,5.625 5.625,5.625 h 11.25 c 3.09375,0 5.625,-2.53125 5.625,-5.625 v -11.25 C 90,137.53125 87.46875,135 84.375,135 Z m 39.375,5.625 v 11.25 c 0,3.09375 2.53125,5.625 5.625,5.625 h 11.25 c 3.09375,0 5.625,-2.53125 5.625,-5.625 v -11.25 C 135,137.53125 132.46875,135 129.375,135 h -11.25 c -3.09375,0 -5.625,2.53125 -5.625,5.625 z"
     id="path2"
     style="fill: #fff; fill-opacity: 1; stroke-width: 0.3515625;"
     inkscape:connector-curvature="0" />
</svg>
