<?xml version="1.0" encoding="UTF-8" standalone="no"?>
<svg
   xmlns:dc="http://purl.org/dc/elements/1.1/"
   xmlns:cc="http://creativecommons.org/ns#"
   xmlns:rdf="http://www.w3.org/1999/02/22-rdf-syntax-ns#"
   xmlns:svg="http://www.w3.org/2000/svg"
   xmlns="http://www.w3.org/2000/svg"
   xmlns:sodipodi="http://sodipodi.sourceforge.net/DTD/sodipodi-0.dtd"
   xmlns:inkscape="http://www.inkscape.org/namespaces/inkscape"
   id="svg8"
   version="1.1"
   viewBox="0 0 59.259811 47.874653"
   height="47.874653mm"
   width="59.259811mm"
   sodipodi:docname="music.svg"
   inkscape:version="0.92.5 (2060ec1f9f, 2020-04-08)">
  <sodipodi:namedview
     pagecolor="#ffffff"
     bordercolor="#666666"
     borderopacity="1"
     objecttolerance="10"
     gridtolerance="10"
     guidetolerance="10"
     inkscape:pageopacity="0"
     inkscape:pageshadow="2"
     inkscape:window-width="1366"
     inkscape:window-height="714"
     id="namedview7"
     showgrid="false"
     fit-margin-top="0"
     fit-margin-left="0"
     fit-margin-right="0"
     fit-margin-bottom="0"
     inkscape:zoom="0.44840528"
     inkscape:cx="40.290146"
     inkscape:cy="104.7617"
     inkscape:window-x="0"
     inkscape:window-y="0"
     inkscape:window-maximized="1"
     inkscape:current-layer="svg8" />
  <defs
     id="defs2" />
  <metadata
     id="metadata5">
    <rdf:RDF>
      <cc:Work
         rdf:about="">
        <dc:format>image/svg+xml</dc:format>
        <dc:type
           rdf:resource="http://purl.org/dc/dcmitype/StillImage" />
        <dc:title></dc:title>
      </cc:Work>
    </rdf:RDF>
  </metadata>
  <path
     inkscape:connector-curvature="0"
     style="fill:#ffffff;fill-opacity:1;stroke-width:0.26458335"
     d="M 4.4092011e-5,47.411703 C 0.00424409,47.157043 1.2898271,42.781493 2.8569601,37.688263 l 2.849328,-9.26041 14.0764199,-0.0685 14.076417,-0.0685 v 3.83877 c 0,3.47861 -0.0434,3.83902 -0.46302,3.84137 -0.7013,0.004 -3.17375,1.22248 -4.31607,2.12722 -1.41979,1.12449 -2.45317,3.33269 -2.45174,5.23905 10e-4,1.33088 0.29628,2.27825 1.3524,4.33895 0.0559,0.10914 -6.218537,0.19844 -13.943267,0.19844 -13.20266291,0 -14.04451391,-0.0278 -14.037383907989,-0.46302 z M 33.212965,47.479903 c -4.04852,-1.44222 -4.74871,-5.28124 -1.34949,-7.39898 1.0102,-0.62936 1.65136,-0.81042 3.27933,-0.92604 l 2.02362,-0.14373 0.13229,-8.70895 0.13229,-8.70896 10.91406,-3.63906 10.91406,-3.63906 v 12.18449 c 0,13.99325 0.10969,13.33736 -2.44325,14.60954 -2.53674,1.26412 -6.13692,0.83121 -7.92054,-0.95241 -1.74341,-1.74342 -1.68718,-3.6333 0.16079,-5.40398 1.22604,-1.17475 2.68773,-1.69474 4.76391,-1.69474 h 1.20576 v -4.11887 c 0,-3.80266 -0.0356,-4.10752 -0.46302,-3.97104 -0.25466,0.0813 -3.26099,1.08169 -6.68073,2.22308 l -6.21771,2.07526 -0.13229,7.69787 c -0.1252,7.28524 -0.16196,7.73788 -0.68579,8.44423 -1.58866,2.14221 -4.9068,3.04261 -7.63329,2.07135 z M 16.790048,23.337883 c -6.33514,-2.268 -9.7386499,-8.72844 -7.8296499,-14.8620303 2.2191199,-7.13007 10.2237699,-10.48635 17.2258069,-7.22265 2.05856,0.95951 4.56964,3.54331 5.63197,5.79506 0.80308,1.70223 0.84942,1.96705 0.84986,4.8568303 5.3e-4,3.00775 -0.0156,3.08891 -1.00798,5.09688 -1.31863,2.66805 -3.11981,4.46668 -5.70019,5.69209 -1.83673,0.87226 -2.19393,0.94714 -4.912107,1.02967 -2.31838,0.0704 -3.20869,-0.0103 -4.25771,-0.38585 z"
     id="path906" />
</svg>
