<?xml version="1.0" encoding="UTF-8" standalone="no"?>
<svg
   xmlns:dc="http://purl.org/dc/elements/1.1/"
   xmlns:cc="http://creativecommons.org/ns#"
   xmlns:rdf="http://www.w3.org/1999/02/22-rdf-syntax-ns#"
   xmlns:svg="http://www.w3.org/2000/svg"
   xmlns="http://www.w3.org/2000/svg"
   xmlns:sodipodi="http://sodipodi.sourceforge.net/DTD/sodipodi-0.dtd"
   xmlns:inkscape="http://www.inkscape.org/namespaces/inkscape"
   id="svg8"
   version="1.1"
   viewBox="0 0 63.5 50.799999"
   height="50.799999mm"
   width="63.5mm"
   sodipodi:docname="speakers.svg"
   inkscape:version="0.92.5 (2060ec1f9f, 2020-04-08)">
  <sodipodi:namedview
     pagecolor="#ffffff"
     bordercolor="#666666"
     borderopacity="1"
     objecttolerance="10"
     gridtolerance="10"
     guidetolerance="10"
     inkscape:pageopacity="0"
     inkscape:pageshadow="2"
     inkscape:window-width="1366"
     inkscape:window-height="714"
     id="namedview7"
     showgrid="false"
     fit-margin-top="0"
     fit-margin-left="0"
     fit-margin-right="0"
     fit-margin-bottom="0"
     inkscape:zoom="0.89681055"
     inkscape:cx="65.977837"
     inkscape:cy="94.641555"
     inkscape:window-x="0"
     inkscape:window-y="0"
     inkscape:window-maximized="1"
     inkscape:current-layer="svg8" />
  <defs
     id="defs2" />
  <metadata
     id="metadata5">
    <rdf:RDF>
      <cc:Work
         rdf:about="">
        <dc:format>image/svg+xml</dc:format>
        <dc:type
           rdf:resource="http://purl.org/dc/dcmitype/StillImage" />
        <dc:title></dc:title>
      </cc:Work>
    </rdf:RDF>
  </metadata>
  <path
     inkscape:connector-curvature="0"
     style="fill: #fff; fill-opacity: 1; stroke-width: 0.26458332;"
     d="M 0,25.4 V 0 H 12.7 25.4 V 12.6765 25.35301 L 23.676536,24.1973 C 21.657339,22.84328 20.643143,22.498 18.118669,22.30513 13.56742,21.9574 9.167778,24.56514 7.191391,28.78188 c -0.640266,1.36605 -0.7091,1.80827 -0.7091,4.55562 0,2.74734 0.06883,3.18957 0.7091,4.55561 1.967984,4.19882 6.284931,6.794 10.777791,6.47921 2.659414,-0.18633 3.65044,-0.51532 5.707354,-1.89463 L 25.4,41.32198 V 46.06099 50.8 H 12.7 0 Z M 19.587114,15.27968 c 3.472061,-1.75403 3.472061,-6.58034 0,-8.33437 C 17.651764,5.9676 15.686574,6.21493 14.197732,7.6236 13.099584,8.66261 12.7,9.59343 12.7,11.1125 c 0,3.66399 3.58698,5.83436 6.887114,4.16718 z M 28.574999,25.4 V 0 h 17.462502 17.4625 v 25.4 25.4 h -17.4625 -17.462502 z m 21.832702,18.1559 c 8.94677,-4.09597 8.93304,-16.28058 -0.0231,-20.46149 -1.39959,-0.65336 -1.86901,-0.73271 -4.34714,-0.73479 -2.57938,-0.002 -2.90606,0.0583 -4.56632,0.84472 -2.38431,1.12942 -4.48628,3.15145 -5.56275,5.35117 -0.80931,1.65379 -0.85096,1.88883 -0.84749,4.78199 0.003,2.73771 0.0744,3.1944 0.70949,4.55603 1.27679,2.73742 3.83143,4.97673 6.95632,6.09769 1.99325,0.71501 5.61687,0.50964 7.68094,-0.43532 z m -5.95941,-4.11561 c -2.78202,-0.84626 -4.76079,-3.38281 -4.76079,-6.10279 0,-2.99737 2.42368,-5.74748 5.49859,-6.23918 0.65362,-0.10452 1.58557,-0.0108 2.47168,0.24848 6.00554,1.75747 6.08836,10.17011 0.11765,11.95142 -1.41036,0.42077 -2.28774,0.45823 -3.32713,0.14207 z m 4.37027,-24.47563 c 1.75674,-1.33993 2.40305,-3.65385 1.57447,-5.63692 -0.52514,-1.25685 -1.08195,-1.85789 -2.29447,-2.47673 -1.75487,-0.89565 -3.88999,-0.58592 -5.32583,0.77259 -1.09814,1.03901 -1.49773,1.96983 -1.49773,3.4889 0,1.51856 0.39907,2.44863 1.49773,3.49055 1.06845,1.01328 1.86382,1.27805 3.56963,1.18831 1.15743,-0.0609 1.71717,-0.24777 2.4762,-0.8267 z M 15.873288,39.45485 c -2.010535,-0.65573 -3.356496,-1.85012 -4.210214,-3.7361 -2.041869,-4.51079 2.258674,-9.63345 7.110309,-8.46956 5.479719,1.31457 6.612956,8.66572 1.773132,11.50205 -1.207424,0.70759 -3.570235,1.06334 -4.673227,0.70361 z"
     id="path1097" />
</svg>
